<?xml version="1.0"?><svg xmlns="http://www.w3.org/2000/svg"  viewBox="0 0 30 30" width="30px" height="30px">    <path d="M 12.130859 4.4179688 C 10.983178 4.4605254 9.6274375 4.7643281 7.9609375 5.4550781 L 5.8105469 12.898438 C 6.9835469 12.424437 8.46 12 10 12 C 11.486 12 12.941328 12.709391 14.361328 13.525391 L 16.59375 5.796875 C 15.375625 5.00125 14.043662 4.347041 12.130859 4.4179688 z M 18.333984 6.9785156 L 16.142578 14.572266 C 17.458578 15.335266 18.785 16 20 16 C 21.851 16 23.657172 15.351266 24.826172 14.822266 L 26.990234 7.3339844 C 22.527234 9.1759844 20.286984 8.2585156 18.333984 6.9785156 z M 10 14 C 8.016 14 6.0696563 14.911266 5.0976562 15.447266 L 2.9902344 22.78125 C 7.4332344 20.94125 9.6379844 21.874578 11.583984 23.142578 L 13.789062 15.505859 C 12.421063 14.698859 11.132 14 10 14 z M 15.570312 16.550781 L 13.365234 24.181641 C 15.321234 25.468641 17.560437 26.395875 22.023438 24.546875 L 24.123047 17.248047 C 22.927047 17.658047 21.49 18 20 18 C 18.451 18 16.987313 17.343781 15.570312 16.550781 z"/></svg>